<?xml version="1.0" encoding="UTF-8" standalone="no"?>
<!DOCTYPE svg PUBLIC "-//W3C//DTD SVG 20010904//EN"
              "http://www.w3.org/TR/2001/REC-SVG-20010904/DTD/svg10.dtd">

<svg xmlns="http://www.w3.org/2000/svg"
     width="5.67778in" height="2.51111in"
     viewBox="0 0 511 226">
  <path id="Selection #3"
        fill="none" stroke="black" stroke-width="1"
        d="M 35.00,62.00
           C 32.73,59.76 30.02,56.71 27.00,55.60
             23.45,54.29 15.29,56.15 7.10,48.67
             -0.61,41.63 -0.17,33.48 0.00,24.00
             0.06,21.08 0.05,18.62 2.31,16.43
             5.16,13.67 9.35,14.01 13.00,14.00
             13.00,14.00 47.00,14.00 47.00,14.00
             50.96,14.00 57.64,13.39 60.85,15.74
             64.39,18.32 63.99,22.12 64.00,26.00
             64.02,37.21 63.13,47.23 51.00,52.00
             53.27,55.17 56.45,59.20 60.00,60.98
             63.64,62.80 81.82,62.01 87.00,62.00
             131.63,61.93 178.69,22.07 224.00,22.00
             224.00,22.00 278.00,22.00 278.00,22.00
             290.66,22.02 301.63,26.09 313.00,31.31
             324.37,36.53 343.64,48.75 354.00,56.14
             357.62,58.72 369.99,68.20 373.00,69.28
             375.40,70.13 378.46,70.00 381.00,70.00
             381.00,70.00 418.00,70.00 418.00,70.00
             447.61,70.05 475.17,86.20 490.95,111.00
             495.46,118.10 499.01,125.88 501.26,134.00
             505.35,148.78 503.73,160.06 504.00,175.00
             504.21,185.90 512.22,182.09 510.85,192.00
             510.00,198.15 505.19,198.93 500.00,199.00
             500.00,199.00 464.00,199.00 464.00,199.00
             452.16,199.02 453.37,203.10 443.00,208.40
             433.65,213.17 424.49,215.24 414.00,214.99
             404.34,214.76 396.48,212.18 388.00,207.74
             377.81,202.40 379.57,199.02 368.00,199.00
             368.00,199.00 216.00,199.00 216.00,199.00
             216.00,199.00 134.00,199.00 134.00,199.00
             125.49,199.16 123.49,203.85 116.00,207.88
             107.68,212.35 98.46,214.89 89.00,215.00
             75.42,215.15 62.62,211.17 52.00,202.53
             52.00,202.53 39.91,190.84 39.91,190.84
             39.91,190.84 29.00,185.69 29.00,185.69
             21.46,181.54 14.54,174.96 11.04,167.00
             6.23,156.06 8.00,137.26 8.00,125.00
             8.00,125.00 8.00,93.00 8.00,93.00
             8.00,80.11 7.07,68.72 22.00,63.39
             26.67,61.72 30.18,62.00 35.00,62.00 Z
           M 47.00,31.00
           C 47.00,31.00 17.00,31.00 17.00,31.00
             19.71,40.00 28.27,38.10 36.00,38.00
             38.75,37.96 41.52,37.97 43.85,36.26
             46.03,34.67 46.28,33.38 47.00,31.00 Z
           M 355.00,78.00
           C 333.42,64.36 303.45,39.04 277.00,39.00
             277.00,39.00 241.00,39.00 241.00,39.00
             225.94,39.18 214.98,47.56 206.01,59.00
             202.80,63.10 200.59,65.99 199.00,71.00
             199.00,71.00 240.00,75.17 240.00,75.17
             240.00,75.17 297.00,80.83 297.00,80.83
             297.00,80.83 314.00,82.28 314.00,82.28
             314.00,82.28 335.00,84.49 335.00,84.49
             335.00,84.49 348.00,84.49 348.00,84.49
             348.00,84.49 355.00,78.00 355.00,78.00 Z
           M 195.00,45.00
           C 195.00,45.00 119.00,74.57 119.00,74.57
             98.84,80.29 77.71,79.00 57.00,79.00
             57.00,79.00 34.00,79.00 34.00,79.00
             31.53,79.04 28.63,78.93 26.70,80.74
             23.79,83.45 24.01,89.33 24.00,93.00
             24.00,93.00 24.00,144.00 24.00,144.00
             24.10,152.29 25.20,160.55 32.00,166.00
             32.00,166.00 32.00,155.00 32.00,155.00
             32.20,137.99 42.88,120.69 57.00,111.55
             82.57,94.99 114.68,100.67 133.10,125.00
             139.97,134.07 143.95,144.58 144.00,156.00
             144.07,171.58 143.13,168.26 140.00,182.00
             140.00,182.00 364.00,182.00 364.00,182.00
             362.14,173.85 360.11,171.16 360.00,162.00
             359.86,149.30 360.64,141.21 367.46,130.00
             391.07,91.22 446.40,93.33 466.73,134.00
             471.78,144.10 473.38,157.90 471.38,169.00
             471.38,169.00 468.00,182.00 468.00,182.00
             468.00,182.00 488.00,182.00 488.00,182.00
             488.00,169.02 488.24,151.39 484.84,139.00
             483.17,132.90 479.73,125.31 476.30,120.00
             473.46,115.60 468.82,109.68 464.99,106.17
             440.46,83.73 416.37,86.95 386.00,87.00
             378.22,87.01 371.49,88.06 365.01,92.79
             359.50,96.81 357.97,101.82 352.00,102.76
             352.00,102.76 334.00,101.17 334.00,101.17
             334.00,101.17 297.00,97.83 297.00,97.83
             297.00,97.83 224.00,90.83 224.00,90.83
             224.00,90.83 208.00,89.09 208.00,89.09
             203.39,88.75 185.16,87.49 182.04,85.83
             180.06,84.76 178.54,83.09 177.74,80.98
             176.16,76.83 178.40,72.64 180.26,69.00
             180.26,69.00 195.00,45.00 195.00,45.00 Z
           M 333.02,110.50
           C 334.66,110.38 335.17,110.05 337.00,110.50
             339.11,110.52 341.09,111.52 342.40,113.23
             347.34,119.63 339.69,129.52 336.40,135.00
             336.40,135.00 325.67,152.00 325.67,152.00
             316.86,162.62 305.50,166.98 292.00,166.86
             292.00,166.86 184.00,166.86 184.00,166.86
             184.00,166.86 158.00,166.86 158.00,166.86
             153.42,165.30 151.52,161.57 152.15,157.00
             153.13,149.87 159.40,150.01 165.00,150.00
             165.00,150.00 289.00,150.00 289.00,150.00
             307.77,149.97 311.82,141.64 320.60,127.00
             324.05,121.26 326.96,114.06 333.02,110.50 Z
           M 83.00,119.30
           C 62.93,123.09 49.02,137.07 49.00,158.00
             49.00,161.99 48.87,165.08 49.93,169.00
             54.89,187.37 74.05,200.43 93.00,197.70
             126.84,192.82 139.65,149.79 112.96,128.02
             108.58,124.44 105.35,122.73 100.00,121.03
             93.61,119.00 89.65,118.64 83.00,119.30 Z
           M 411.00,119.30
           C 390.93,123.09 377.02,137.07 377.00,158.00
             377.00,161.99 376.87,165.08 377.93,169.00
             382.89,187.37 402.05,200.43 421.00,197.70
             454.84,192.82 467.65,149.79 440.96,128.02
             436.58,124.44 433.35,122.73 428.00,121.03
             421.61,119.00 417.65,118.64 411.00,119.30 Z
           M 82.00,126.46
           C 89.16,125.48 97.17,126.47 95.85,136.00
             94.83,143.41 88.32,142.32 84.00,143.99
             78.45,146.14 73.68,150.88 73.11,157.00
             72.08,168.17 85.10,179.36 96.91,170.21
             104.50,164.33 102.09,158.56 104.93,154.11
             106.89,151.05 110.45,149.57 114.00,150.45
             120.00,151.93 120.11,156.91 119.99,162.00
             119.69,174.22 110.44,185.46 99.00,189.25
             86.28,193.46 72.12,190.22 63.21,179.99
             51.37,166.38 53.87,143.45 68.00,132.53
             72.59,128.98 76.46,127.70 82.00,126.46 Z
           M 410.00,126.46
           C 417.16,125.48 425.17,126.47 423.85,136.00
             422.83,143.41 416.32,142.32 412.00,143.99
             406.45,146.14 401.68,150.88 401.11,157.00
             400.08,168.17 413.10,179.36 424.91,170.21
             432.50,164.33 430.09,158.56 432.93,154.11
             434.89,151.05 438.45,149.57 442.00,150.45
             448.00,151.93 448.11,156.91 447.99,162.00
             447.69,174.22 438.44,185.46 427.00,189.25
             414.28,193.46 400.12,190.22 391.21,179.99
             379.37,166.38 381.87,143.45 396.00,132.53
             400.59,128.98 404.46,127.70 410.00,126.46 Z" />
</svg>
